/* XPM */
static char *e7500468e2334e2cb1c8ee0b84e0e12c51c9LtHvXDwpYGrs[] = {
/* columns rows colors chars-per-pixel */
"128 128 56 1 ",
"  c #000000",
". c #0C0C0C",
"X c #3A1206",
"o c gray23",
"O c #461508",
"+ c #4B1608",
"@ c #4E1808",
"# c #541909",
"$ c #5C1C0A",
"% c #641E0B",
"& c #681F0B",
"* c #66200C",
"= c #6C210C",
"- c #73230D",
"; c #7B250E",
": c #434343",
"> c gray30",
", c gray33",
"< c #5B5B5B",
"1 c #656565",
"2 c #6C6C6C",
"3 c #767676",
"4 c #7E7E7E",
"5 c #81270E",
"6 c #84290F",
"7 c #8B2A0F",
"8 c #922C0F",
"9 c #862A10",
"0 c #8D2B10",
"q c #942D11",
"w c #992F12",
"e c #9D3112",
"r c #A43313",
"t c #AB3514",
"y c #B13715",
"u c #B53815",
"i c #BC3A16",
"p c #C43D17",
"a c #C93E17",
"s c #C73E18",
"d c #C93F18",
"f c #CE4018",
"g c #D24119",
"h c #D94319",
"j c #828282",
"k c #8B8B8B",
"l c #939393",
"z c #9D9D9D",
"x c #A6A6A6",
"c c #ADADAD",
"v c #B6B6B6",
"b c #B9B9B9",
"n c #C4C4C4",
"m c #CDCDCD",
"M c #D5D5D5",
"N c #DADADA",
/* pixels */
"pafghhhhhgffffdsspipiiiiuyyttttrissffhhghggffsssspiiiiiuuyyytttrppffghhhghgfffppssiiiiuuuuyyytteppsffhhhghfgffssssiipuuuuyytytr7",
"ipdghhhhhggfffdspppiiiuuuyyyttttyiisfhhhgggfffdsppppiiiuuuyttttryiuffhhgggggffpfsiisiiuuuuytttrtyupsfhhhhgffffsssiifiiiuuuyyytt5",
"uisfhhhhgggffssssppiiiiiuuyyytrrtyisfhhggggffssspppiiiuuuyyyytrttyuffgghhggfffapssisiiiiuyyytttryyipdhghgggfffsdffiiiiiuuyyyttt;",
"yupfhhhhhggfffsspppiiiuuuyyyttrtryupfhghhhgfffsssppiiiiiuuyytttrryyifhhhgggfffpfissiiiuuuyyyyttrryupdhghhggffssdiiifiiiuuuytttr;",
"tuifggggffsspipiiuuytttrrreeww88rtyisggfffssspipiuuyttrrreeewqqqrtuiffggffdsppiiuuuytttrrreewwqqetuisggfffdssppiuuuytttrreeeew8=",
"tuisghggffssffiiiuuytttrreeew888rryisgggffssppiiiuuyytttrreewqq0rryifffgffdsppiiiuuyyttrreewwqq0etyisgggffdsppiiiuuyytttrreww88*",
"tuidhgggffffiiiiuuuyyttrrreeww88rryisgggffsssipiuuyytttrreewwqqqetuiffggffdspppiiuuytttrrreewwqqetyifggfffsssiiiuuuyyttrrreeww8*",
"ruifghggffipfpiiiuuutttrreeeww88rryisggffffsppiiiiuyyttrteeewwqqrryiiffgffdpppiiiuuyyttrrreewqq0ettufgfffsssspiiiuuyttrrrreew88*",
"tuifggggffffifiiiuuyyttrrreewqq8etyisfggffssppiiuuyyytrrrreewqqqrryiahdhffssppiiiuyyyttrreewwqq0etyisfgfgdddsiiiuuuutttrreeewwq*",
"tuufghhgfffpfiiiiiyyttttrreeww88etyisfgfffsspppiiuuytttrrreewwq0wtyiadhdfffspipiiuuyytttrreewqqqeyyisggfgdddppsiiuuttttrrrewwq8*",
"tyufggggfffpfiiiiyyyytrrreeeeqq0etyisfggffsspppiiuuyyttrrreewqqqrtyiadgdfffsppiiiuuyttrrrreewwq0etyisffggddsppiiiuuutttrrreewq8*",
"tyufhgggfffpifiiiiyyytttrreeqqqqeryisfggffssppiiiuuyyttrreeewwq0rrypddhdffsspppiiuuyyttrrreewqqqeryusgggfddspppiiuututtrrreewq8*",
"tuuffghgffpppiiiuuuyyrrrrreqeeq0etyisgggffsspipiuuuytttrrreewwqqwtyisdggffdspipiiuuyttttrreewqqqetyisfhggddsppiiiiyyttttreewwqq*",
"tyufhgggfffffppiiuuyyytrrreeqqqqetyusfggffssppiiuiuyytttteewwqq0rrtisggdffdsppiiuiuytttrreeewqqqetyisffgffdspppiiyyyyttrtreeww8*",
"tyifggggffppipiiiiyyyrtrrreeeqqqetyisfgffffspppiiuuyttrrrreewwqqetyisfgfffssppiiuuuyyttrrreewqqqetyisffffddsppiiiiyyytttreeewqq*",
"tyifghggfffpppiiuuuyyyrtreeeeqq0etyisggfffssspiiiuuyyttrreeewqq0rryisgggffdspppiuuuyyttrreeewqq0rryisfhfgfdsppiiuuiyttrrteeewq8*",
"tuidfhggfdsssisiiuuytttrreeeeqqqrryisfggffssppiiiuuytytrrrewwqq0etyipggffffsspiiiuuytttrrreewqqqetyisgggffsspppiiiyyytrrreeeeqq*",
"ruishhggffdsssiiuuuyyttrrreewwqqetyisffgfgssppiiiuuyyttrreeewqqqeryisfggffssppiiiuuytttrrreewwqqeryisgfgdffsppiiuuuytttrrreeeqq*",
"tuidghggffsssiiiiuuyyttrreeewqq0eryisfggffsspppiuuuytttrrreewwq0rtyisggfffdsppiiiiuyyttrreeewwq0etyisffggdsspppiuiyyyttrreeewqq*",
"ruidhfgfffsspsiiuiyytttrrreewqqqrryisfggfffsspiiiiuyyttrreeewqqqetyusgggffdsppiiuuuytytrrrewwqqqettisggggdsppppiiuuyyttrrreewqq%",
"tuidfhfhfffsppiiiuyyyttrrreewqqqrryidgggffdsssiiuuyytttrrreewqqqrrtipggdffdssppiiuuyyttrrreewwq0ettisfgggfssfiiiiuuyyttrrreewwq*",
"tyidhfhfffssssiiiuuytytrreewwwq0eryisfggffdssppiiuuyyttrteeewwqqetyisfggffdsppiiiuuytttrreeewwqqrtyisggfffssiiiiiuuyytttreeewq0*",
"tyidfhhffffssiiiiuuyytttteewwwqqetyisfgfffssisiiiuuyyttrteeewqqqetyidggdffsspiiiuuyytytrrrewwqq0etyisfggfdsssfiiuuiyytrrrreeeqq*",
"tyidhhffffssssiiuuuyttrrteewwwq0etyisgggffsssiiiiuuytttrreeewqqqrryisgggfdsssspiuiyyyttrrrewwww0ettisgggfdfssisiuuyytttrreeeqqq*",
"tyiffgggffsssisiiuuyytrtreeeewq0etyisfgfffsspsiiuuyyyttrrreewqq0etyisgggffssppiiiuuyttrrrrrwwqqqeryisffggddsfiiiiuuyyttrrreewqq*",
"tyisggggffssssiiuiyytyrrteeewqqqetyisfggffsspisiuiuyyttrrreewwqqetyisffgffssppiiiuuyyttrrrrwwwq0rtyisfgggfddfisiuuyyytttrreeww0*",
"tuishgggffsssiiiiuyyyttttreewqq0rryisfggffssppiiiuyytttrrreewqqqetyusggggfssppiiuuuyytttrrwwwqqqeryisgggddifiiiiiuuyttrrreeeeqq*",
"typsgghgfffsppiiiuyyytrreeeewwqqeryusfgfffsssppiiuuyyttrreeewqq0etyisfggffssppiiiuuytttrrrrwwwq0rryisgggdffffiiiiuuyytttrreeqqq*",
"tyifggggfffsssiiiiyyyttrreewwwq0rtyidgggffdsppiiuiuytttrreeewwq0etyisfgfgfsspppiiuyyyytrrreewwqqertisgggffiippiiuuuuytrrrreeeqq*",
"tyishgggffssisiiuuyyytrtrreewqqqeryisfggffdsppiiiuuyyttrrreewwqqetyisgggffssppiiiuuyyttrrrewwwq0etyiigggffffpppiiuuytttrrreqwqq*",
"tyisghhgffssssiiiuuyttrtrreewqq0ettisgfgffdsppiiiuuyyttrrreewqq0etyisggfffsspppiuuuyyyrrrreewqqqetyisggfffffppiiiuyyyttrreeewwq*",
"typfggggffsssiiiiiuyyyrrrreewwqqetyisggffddsspiiiuuytttrreewwwqqeryipfgffffsppiiiuuytrtrreewwwq0rryisggffffifipiiuuyyttrrreewqq*",
"tyidhfhffdspppiuiuuttttrrrwwwq88etyypffffffpiiiiuuyyttrrreewq88qettipfffffppppiiuuytttrrreewwqq0rryupfggfssssiiiuuyyttrrrreqq88*",
"ryusfffffsssiiiiuyytttrreewwqq80eryupfffffpppiiuuuyttttrrewwwq00ertupfffapfpiiiiuuyyttrrreewqq00eryipsffsssisiiuuuyyttrrreeew88%",
"ryusffffssspiiuuyttttrreeew8q880ettypfffpfpppiiuuutttrrreew88877ertupffffpppiiuuuyyttrrreewqqq00ertipfsfssppiiiuuyytrrreeeqqqq0%",
"wrtypiiiuiyyyyttttreewww880867660qetyiiiuuyyttttrrrewww8w88777660wrryiiiuuuuytttrrreewww88000659qqeryiiiiiuuytttrreeeeewqq00766$",
"0wetuyuytttrrreeeqwwq7877766;;;;90qetyyyytrtrereeewwqq076666;;;;90weryyytttrrreeeew8q70776665;;;9qweryytttrrrrreeewqqq009999;;;#",
";90ererreeweqqqq0099666;;;;---==;;00qeeeeeeqwq080999565;;;;---==;;90eeeerwwwqwq07777666;;;-;---=;;;qweereeewqqqq00999;;;;;----=#",
";;;900000009;;;;;;;----====*=*$*=--;90000999696;;;;------====***=--990000876666;;;;-----====**%%=-;;900090996;;;;;;;---=-==*&&&O",
"***;;;;;;-------===****$%$$$$$##$**=-;;;;;---=-====&%%%$*$$#$###$%*=-;;;------=====*%%%$%$$$$###$***-;;;;;----**==****%%%$$$###X",
">,<23444jjj4j4j4jj4j44j44433344j4j4jjj4jj4j44j44j4j4j4jjj4jjjj4jj4444444jj4j44j444jj4j44j44j4j44jjj4jj4j4j44jj4j4j44j44444332<,>",
",134jklllllllllllllllllllkkkkkklllllllllllllllllllllllllllllllllkkkklllllllllllllllllllllllllkkkkllllllllllllllllllllllllllk331,",
"<34klxzxcxxxxxxxxxxxxxxxxzzzzzzxxxxxxxxxxxxxxxxxxxxxxxxxxxxxxxxxzzzzzzxxxxxxxxxxxxxxxxxxxxxxzzzzzzxxxxxxxxxxxxxxxxxxxxxxxxzlk43<",
"14klxvvvvvbvbvvbvvbbbvbbccccccccvbvbvvvbbbvbbvbbbvbvbvbvvbvvbvvbvccxccvbvvvvbvbbbvbvbvbbvvvvcccxcccbvvbvbvbbvvbbbbbvbbbvvvcxlk42",
"3jzxcnnnnnnnnnnnnnnnnnnnbbbbbbbbbnnnnnnnnnnnnnnnnnnnnnnnnnnnnnnnnbbbbbbbnnnnnnnnnnnnnnnnnbbbbbbbbbbbnnnnnnnnnnnnnnnnnnnnnnncxlj3",
"3lzcnmmMMMMMMMMMMMMMMMnmnnmnmnnnmMMMMMMMMMMMMMMMMMMMMMMMMMMMMMMMMMMnmnnmmMMMMMMMMMMMMMmmnnmnnmnnmnnnMMMMMMMMMMMMMMMMMMMMMmmnvxl3",
"4lxvnmMMNMMMMMNMNMMMmmmnmnmmnmnmmmmMMMMNMNMMNMMNNMNNMMNNNMMNMMMNNMMMmmmnmnMMMMMNMMMmmmmnmmnmmmmmnmmmmMMNMNMMNMMMMMNMMMMMMMmnvxl4",
"3kzvnMMMNNNNNNNNjkjj44444444j44j344444jjMMNNNMNNjkjjjkjjNMNNNNNNNNNMMmmm444kjkjjmmmnmmmm44444444444444jjkjjkjkjkNNNNNNNNNmmbcxk3",
"3kzcvmMNNNNNNNNk                        4mmmMmmj        lNNNNNNNNNNNNNMj        jmmmMmm4                        kNNNNNNNmmnbczk3",
"3kzcbnmmNNNNNNNk                        jmmmmmmj        .lmMMNNNNNNNNNNk        jmmmmmM4                        kNNNNNNMmmnbczk3",
"4kzcbnnmmNNNNNNk                        jmmmmmmj         .lmmmMNNNNNNNNj        4mmmmmm4                        kNNNNNmMmnmbczk3",
"3kzcbnmmmnNNNNNk                        jmmmmmmj           lmmmMNNNNNNNk        4mmmmmM4                        kNNNNMmmnmnbczk3",
"3kzcbmnmmmmmMNNj                        4mmmmmm4            lmmmNNNNNNNk        jmmMmmmj                        jNNNMmmmmmnbczk3",
"3kzcbnmmmmmMmmm4                        jmMmmmmj             lmmMMNNNNNj        4mmmmmmj                        jMMmmmmmmnmbczk3",
"3kzcbnnmmmmmMmmj                        4mmmMmm4             .lMmmMNNNNk        jmMmmmm4                        jmmmmmMmmnmbczk3",
"3kzcbnmmMmmmmmmj                        jmmmmmm4               lmmmmMMNk        4mmmmmmj                        4mmMmmmmmmnbczk3",
"4kzcvnmmmmmmmmmmj4j44jj>        >j44jj4jmmmmmmmj                lmmmmmmj        4mmmmmmmj4jj4jj>        ,4j4jjj4mmmMMmmmmnnbczk3",
"3kzcbmmmmmmmmmmMMmmmMmm4        jmmmmmmmmmmmmmm4                .lmmMmm4        jmmmMmmMmmmmmmm4        jmmmmmmmmmmmmmmmmmmbczk3",
"3kzcbnnmmmmmmmmmmMmmmmmj        jmmmmmmMmmMmMmm4                  lMmmmj        4mmmmmmmmmmmmmm4        4mmMmMmmmmmmmmmmmmnbczk3",
"3kzcbnmmmmmmMmmmmmmmmmm4        4mmmmmmmmmmmmmmj                   lmmmj        jmmmmmmmmmmmmmM4        4mmmmmmmmmmmmmMmmnnbczk3",
"3kzcbnmmmmmmmmmMmmmmmmmj        jmmMmmmmmmmmMmmj                    lMm4        4mmMmmMmmmmmmMmj        jmmmMmmmmmmmmmmmmmmbczk3",
"3kzcbmnmmMmmmmmmmmMmmmm4        4mmmmmmmmmmmmmm4                     lmj        jmmmmmmmMmMmmmm4        4mmmmmmmMmMmmmmmmmnbxzk3",
"3kzcbnmmmmmmmmmmmmmmmmMj        jmmmmmmmMmmmmmmj                     .lj        jmmmmmmmmmmmmmmj        jmmMmmmMmmmmmmmmmnnbczk3",
"3kzcbnmmmmmMMmmmMmmmmmmj        jmmmmmmMmmmmmmmj                       <        jmmmmmmmmmmmmmmj        4mmmmmmmmmmmmmmmmmmbczk3",
"3kzcbmmmmmmmmmmmmmmmmmmj        jmmmmmmMmmmmmmmj        :                       jmmmmmmmmmmmmMmj        jmmMmmmmmmmmmmmmmmmbczk3",
"3kzcvnnmmmMmMmmmMmmmmmmj        jmmmmmmmMmmmmmmj        44                      jmmmMmMmmmmMmmmj        jmmmmmmmmmMmmmmmmmnvxzk3",
"3kzcbnmmmmmmmmmmmmMmmmmj        4mmmmmmmmmmmmmmj        jmj                     jmmmmmmmmmmmmmm4        4mmmmmmMmmmmmMmmmmnbxzk3",
"3kzcbnnmmMmmmmmmmmmmmmmj        jmMmmmmmmmMmmmm4        4mmj                    jmmmmmmmMmmmmmmj        jmmmmmmmmmmmmmmmmnmvcxk3",
"3kxcbnmmmmmmmMmmmmmmmmmj        jmmmmmMmmmMmmmMj        jmmmj                   jmmmmmmmmmmmmmmj        jmmmmmmmMmMmmmmMmnnbczk3",
"3kzcbnnmmmmmmmmmmmmMmmmj        4mmMmmmmmmmmmmm4        4mmmmj                  jmmmMmmmmmmmMmm4        4mmMmmMmmmmmmmmmmmmbczk3",
"3kzcbmmmmmmmmmmmmmmmmmmj        4mmmmmmmmmmmmmM4        jmmMmmj                 jmMmmmMmmMmMmmMj        jmmmmmmmmmMmmmMmmmnbxzk3",
"3kzcbnmmmmmMmmmmnnnnnnmj        jMmmMmmmmMmmmmm4        jmmmmmMj                jmmmmmmmmmmmmmmj        4mMmnnnnnmmmmmmmmnmbcxk3",
"3kzcbmmmMmmmmnvccvcvccv3        4mmmmmmmmmmmmnn3        jmmmmmmmj               jmmmmmmmmmmMmmmj        jnbcvcccvcvvnmmmmmnbczk3",
"3kzcbnnmmmmmvcccccccccc2        jmmMmmMmmmbbcvv2        jmmmmmmmmj              4mmmmmmmmmmmmmmj        3xcvcccvcccccnmmmnmbxzk3",
"3kzcvmmmmmmbcvcvcccccvc2        jmMmmmmnbvcvccc2        jmmmmmMmmm4             jmmmmmmmmmmmmmmj        2cccccccccccvcnmmmnbczk3",
"3kzcbnnmmmbccccccvcvccc2        3bbbbvvcvccccvc2        4mmmmmmmmmmj            jMmmmmmMmmmmmmmj        2cvcvccvvcvccccnmnnbxxk3",
"3kzcbmmmmbcccvcvccccccc2        1vcvccccccvccvc3        2vnmmmmmmmmMj           jmmmmmmmmmmmmmmj        2cvcccccccvccvccbmmbczk3",
"3kzcbnmnnvvcccccvcvccvc2        2ccccvvcccccccc2        2cccbmmmmmmmm4          jmmmmmmmMmmmmmmj        1vcccvcvcccccccccbnbczk3",
"3kzcbnnvccccccccccvccvv2        2vcccccccvccccv1        2cccccbnmMmmmMj         jmmmMmmmmmmMmmm4        2ccccvccxvvcvcvcccvcczk3",
"2jlzxcccccvccvcvccccccc2        2ccvcvccccvccvc2        2cvcvcccvbmmmmmx        jmmmmmmnnnmmmmm4        3cvcccccvcccccccccxzlk43",
"13jkzxxccccccccccccvcccc22222222cccccccccccccccc22122222ccccccccxccbmmmm44444444mmmmnvccccvnmmmm44443222ccccccccxcccccccxcxzkj31",
"13jlzxxcccxcccccvnnmmmbcccccccxccxcccccxccccxcccccccccccxccccccccccccnmmnmmmnmmmmmmbcxccccxccbmmnmmmbccccccccxcccccxcccccxxzlj31",
"13jkzxxxxxcccxxvmnnmnnmnvxxcxccxcxxcxccxxvbnnnbcxccxxcxccxxccxcxxcxccxbmnmmnnmnnnmvccxxccxxccccnmnmnccxxxxcxxcxcxccxcxcxxxxzkj31",
"<23jkzzzzzzzzzxvbbvvbbbbbxzzzzzzzzzzzzzxbbvbbbbbczzzzzzzzzzzzzzzzzzzzzzvbbvvbbbbvczzzzzzzzzzzzzzvbbczzzzzzzzzzzzxzzzzzzzzzzkj31<",
",123jlklllllllcccccccccxcxllllllllllllxxcccxccxccxlllllllllllllllllllllzccccccccxlllllkllllllllllcxzlllllllllllllklllllllllj421,",
"><123jjjjjkjjlzzzzzzzzzzzzzkkjjkjjjkjlzzzzzxzzzzzzljjjjjjjjkjjjkjjjkjjjjkzzzzzzzjkjjjjkjjkjjjjjjjlzkjkjkkjjjjjjkjjjkjjjkjjj331<>",
":,<123333333jkkkkkkkkkkkkkkk33333333jkkkkkkkkkkkkkk4333333333333333333333jkkkkk3333333333333333333j33333333333333333333333311<>:",
"o:>,<1111111333333333333333331111112333333333333333311111111111111111111113333211111111111111111111111111111111<1111111111<<<>:o",
"%%%%&%&%&%%$$%$$#$####++++++OOOOO%%%%%&%*%%$%%$$$#####+#++++OOOO@$%%%&%&%%%%%$$$%$####@@@+++OOOO#%%%%&%%&%%%%$%$##$###+#++++OOO+",
"&=-;;;;;;----&&&&%&%%%%%$$$#$####&&--;;-----&=&&&&&&%%%%$$$####@#==--;;----=-&&&&&&%%%%$$$$#$####&&--;-;--=-=&=&&&%%%$%%$$$$####",
"--5577776555;;;;;---==&&&&%%%$$$$=;;57776555;;;;---=&==&***%*$$$$--;57675555;;;;----&=&&&&%%%$$$$--;577555555;;-;;-=&-&&&&%%%%$$",
"557788888877776555;;;-;----&&%%%%;558888887777665555;-----==****%;5988888877775555;;;;;-=-=&&&%%%;578888887775755;;;;;---===&&%$",
"88rtpuyyyrrrerww8w88877757555;;;;78eyutyyrrreeewwwq8q0079955;;;;-0weryuyttrrerrww888887775555;;;;7weryttttrrreeww88887777655;;;;",
"rtupddaaaapppiiuuuuttrrrewwqq8775rtuadaaappppiiuyyytrrrreewww0005rtupdddappppiuuuyyttrrwerww88775rtupaaapaappiiuuyyyttrreew8887;",
"ryipdhdaaapppiiuuuuutrtrrewwq8885rtiadddaapppiiiuuyyttrrrewwqqq05rtupdgdaaapiiiiiuytttrrrrw8w8885rtiadaaaapppiiuuuyytrrereewqqq5",
"ttpphhdaaapppipiuuttttrrrewwq8885ttiaddaaapppppuuyyyttrrrewwwq009ryipddgaaaappiuuuyytttrrwwww8875ttpahddaapppppuuuyytttrreeww8q6",
"tuiadhdhffssfipiuiuytttrrreeewqq5tyipfggffsssiiiiuuyyttrrrwwww0q9ryisfggffsssisiiuuyyttrrreeeqqq6tyisggdffsspppiiuuuttttrrrwwqq9",
"tuiadhhdffssfipiuuuyyttrreeewqqq9ryisfggfffssisiuiuytttrrreewwqq9ryisggfffssssiiuuuyyttrreeewqq05ttisdhdgffsppiiuuuyytrrrrwwwww;",
"tuuadhdhfffsiipiuuuyytttteeewqq05tyisfgfffssissiiuyyyttrrrewww0q9ryisfggffssspiiiuuytttrrreewqqq5ttiddgdgsssppiiuuuyttyrrrwrwwq9",
"tyiahhdhffssspiiiuuyttrrreeewqqq9ryisggfffssssiiiuuytttrrreewww09ryisggfffsssiiiiuyyytttreeeeqq05tyiahhdfffsppiiiuuyyttrrrwwwwq;",
"typahhdhffsspppiiuuytttrrreewqqq5tyisggggfssspiiuiuyyttrrrewwqqq9ryisgggfffsppiiuuuuttrrrreewqqq5ttiaddhffssppiiiuuytttrrreewwq;",
"tuiadhhdffssppiiiuuyyttrrreewqqq5tyisfggfffsppiiiuuyttttreeewwq09ryisggfffssppiiiuuyyttrrreeeqqq5tyiadhdffsspppiiuuytttrrrewwqq9",
"typahhhdffssppiiiuyytttrrrewwqqq5tyisfgfffssppiiiuuyttrrrrewwwqq9ryisffgffssppiiiuuyyttrrreewqq05typddddffsspppiuuuyyttrrreewwq9",
"tyaaddhhfffspppiiuuyttttrerwwqq05ryisggggsssppiiiuuyttttrrewwqq0;tyisgggffsspppiiuuyyttrreeweqqq5tyadhdhgsssppiiiuuutttrreeewwq;",
"tyiaghggfffpppiiuiuytytrrreewww05tyipffgffsspppuuuuyytrrrrewwwqq9ryisfggffsssppiuuuyttttrreeqqq05ttiadddhdddpipiiiuyyttrrrrwwqq9",
"tyiaghggffffppiiiuuyyttrrrewwqqq9tyisfgfffssppiiiuyytttrrreewqq09tyipfggffssppiiiiuytttrrreeeqqq5tyiahhdddddppiiuuyytytrrrewwqq;",
"tyiaggggffpppppiiuyytttrrreewqq05ryisfggffsspppiiuuyyttrrreewqqq;tyisffgffsspipiuuuytttrreeewqqq5tyiaddhhdddppiiiuyyyrtrrreeeqq9",
"tuiahhggffffpsiiiuyyytttreewwqqq9ryisfggffssppiiiuuyyttrrrewwwq09ryisgggfffsspiiiuyyyyrrrrrewqqq9ttiddhdddddpppiiuyyyytrreewwqq9",
"tyifggggffffiiiiuuuyttrrrreewwqq5tyipgggffssppiiuuuytttrteeewwqq6tyisgggffsspppiiuyytttrrrwwwqqq9ryisfgggddssppiuuuyttttrreewwq;",
"tuiahgggffiffppiiuyyyttrreewwqqq5tyisgggfffspppiiiuyyttrteeewwqq6ryisfgfgsssspiiiuuyytttrrewwqq09ryisggdhddsppiiiuuyytrrrrewwqq9",
"tyiaggggffpfiiiiiuuyyttrrrrwwqq05tyipgggffsspppiuuuyyttrrrewwwq06ryusggggfssppiiiuuyttrrrrrwwqqq9ryisggggdddpiiiiiyyttyrrreewwq9",
"tyiahgggfffifiiiiuuytyttreewwqqq5ryipgfffffsppiiiuuytttrreewwq0q6tyisggfffsssiiiiuuuttttrrwwwwq09rtisfgdgdddpppiuuuyyttrreeewwq;",
"ruisghgggdsspppiuuuyytrrrreewqqq5tyipahadddappiiiiuytttrrrewwqq06ryisfdhhddsspiiuuuytttrrrewwqqq6ryiahdhffssppiiiuuyytrrrreewwq;",
"tuifhggggddsppiiiuuytttrrreewqqq5tyiaaahhaaappiiuiyyttttrreewqqq9ryisgddhddsppiiiuuyyttrrreewwqq6tyiadhdfddspppiuuuyyttrrreewqq9",
"tuisghggfdssppiiiiyyyttrrrewwqqq5ttuadhadddapppiiuuyyttrrrewwwqq9tyisffgfddspppipuuytttrrreewqq06tyiadgdgfdspppiiuuytttrrrewwqq;",
"tyifgggggdsspppiuuuyyttrrrrwwqq05typaadhdddappiiiuyytttrrrewwqqq;ryisggggdddppiiuuuyyttrrrewwqqq5rypadhdffdssiiiuiyyytttrreewww9",
"tuufhggggfssppiiiuuytttrrreewqqq5tyuahahhdddspiiiuuyyttrrrewww809tyipfgggfssppiiuuuyttttrrrw888q5ttisdggffdsppiiiuuyttrrrreewwq;",
"tyufghgggsfsppiiiiyyyttrreewwwqq5rypaahahdddpppiuuuyyttrrrewwq8q;tyisgfgffssppiiuuuutttrrrwwwwqq9tyisggdffsspipiiuuyytttrrewwqq9",
"tyifhgggffssppiiiuuytttrrreewqq05ttpaaahddddpppiiuuytttrrrrwwwq89ryisgfgffsssppipuuytttrrrwrw88q9ryisfgfffdsppiiiuuyttrrrrrwwqq;",
"tyufgggggfsspppiuuuyyttrrreewqqq5typaahahdddppiiuiyytttrrrewwwq89tyusfggffssppiiuuuyyttrrrwwwwwq9ttisgggffdspppiuuuuyttrreeewww9",
"tuuffhggggdssppiiuyyytttrreewwq05tyuaaahdaappppiiuyyyttrreeee8885ttpahahffssspiiuuuytttrrrewwq8q9ruisgfgffappppiuuuyyttrrreewqq;",
"ryufggggddddppiiiuuytyrrrrewwwqq5typaahadaaappiiiuuyttttrreeww885rtuaahaffssppiipuuyyttrrreewqqq9rtisfgdfffppppiiuuytyrtreeewqw9",
"tuifgfggdddsppiiuuyyytrrrreewwq05ttpaaahddpppppiiuuyttrrrreeww885typaaaafssssipiuuyytttrrrewww889ryiadgggfaappiiiuyyytrrrrewwwq;",
"rtupffffsspiiiiyuyyytrrreeewwqqq5wtypaaaddppiuiuyyytttrreeeww8885rtypaaassspiiiuuyytttrrrewwwq889erupaaappppiiuuuuyytrttreewwwq9",
"eetupppipiiiuuyyyytrrrrreeewwwq058ettpppapuiuuuyttttttrreeeww88858rtyppupiiiuuyyytttrtrweewww88858etuipppiuuuuuytttttrreeewwqqq;",
"wrtuipppipiuuuuyyttttrrreewwqqw058etuupuppiuuuyyttttrrreeeeew888;8rtyppppiiuuuyyytttrrrreeeww88w58etuppiiiiiuuyyyttrrtreeeewwqq;",
"wrtuippiiiiiuuyyytttrrrreewwwwq058wtyppppuiiuuuyyttrtrreeeeww88858rrypupiiiiiyyyytttrrrrreww8w8858etypippiiuuuyyttttrrrreeewqwq;",
"weruppppiiiuuuyyyytrrrrrerwwqqqq58rtyppuppiuiuyyytttrtreeeeww88858rtyppipiiuuiyytttttrrreeeww8885wetyipiiiiiuuuyytttrrrreewwwqq;"
};
