/* XPM */
static char *_9987785b5d1474fda4bb08538f56c350RYspRxuYHrJLvQF[] = {
/* columns rows colors chars-per-pixel */
"128 128 36 1 ",
"  c #157889",
". c #157B89",
"X c #15798A",
"o c #157B8A",
"O c #157B8B",
"+ c #157C8B",
"@ c #157F8C",
"# c #157F8D",
"$ c #15808B",
"% c #15828C",
"& c #15838D",
"* c #15858E",
"= c #15888F",
"- c #15898F",
"; c #158590",
": c #158990",
"> c #158992",
", c #158B93",
"< c #158E93",
"1 c #158D94",
"2 c #159093",
"3 c #159095",
"4 c #159395",
"5 c #159096",
"6 c #169397",
"7 c #159497",
"8 c #169597",
"9 c #159398",
"0 c #159599",
"q c #159798",
"w c #169698",
"e c #15979A",
"r c #15989A",
"t c #15999A",
"y c #15989B",
"u c #15999B",
/* pixels */
"+++++$@&&&&@&&&&&&&@$$+&+&@@&&;;:;:;:;;:;;:<<<<1*&&+&$&+&+&$&+&+&$&&;<:<*@O@o o oo  ooO@o@o@o@o@o@o@o@oO@oOoOO&ooooOO@O@o@ooooOO",
"+o++$$@&&&&&@&*;&@&&$+$$@+&&@@*;:-;:;::;::::<<:1;@+&+&+&+&+&+&+&+&+&;:::;oooo o   ooo o@@o@o@o@oOOoooO@OOOO@o@OOO&o&@o@OoooooooO",
"+++&*;;;:*;:;::::;;@$$+$*1ee1:3333<-::;*:::<<<<<1***&&&&@@&+&$&$$&&+$&@&*+oo    oooO@@O@O@o@o@Ooo  oOOoO@o@OOoOo+++$@&&@&@@@o@@@",
"*&****::::::1:1:1:1,-<<eeee37e333733111<:1:::<<<2<**&&&&&&$&$&+&&$$++@@+@ooooo oooooo@@@&@@o@Oo o o ooooOOooO@O@$++*@;@&&&&&&&&&",
";&&&&&&;:::1:1<<11<<:13eeey3373737377322332<:<<<2<:;;;&&&@&@&+&@$&$$$$@++. +   +oooooo@@@&@o@o   oo o o oooo+++++$+**&&@&@&&&&&&",
"&&&&&&&&*:::1:<<<<<<1127eeye73737373332223222<<22<<*&&&;&&@&$&@@&$+$$++&++ .oo.+oooooo@@&o@O@O        o oooo++++$+++*+&&&&&*&&&;",
";;;:;;&**<:<:111:3<<1yeeeey37337<w7777777332232<3<2:;*&;;&@&&&&;&@+$$+&+++.++.+ o@@@@o@&&&&&&@     o oooo+$++$+$$&&&&&**&&;::;;;",
";::;::*;*:1<11:<11<2yyeeeey7773ew777777233773223223::**&&&;&&&@@+@&+&++&+$++ +.+@&&@&@@&&&&;&&oooo ooooo+$++$++o*$&&&&&*;;;:;:;:",
"::;::;;;*;11<<<<37eeeeeeee777777777772373237722332<<*:***&*&&;@@@@@@@@@@++++*++&&+*$&@@&&&*&&&+oooooooOo&&@o@+*&&&&&&&***;;:;:;:",
":;:;:;;:**<<<1<eyeeeeeeey7y777w777733322372233322<<3-:**&*&;&;@@@@@@&@@@++++$&&$&*+*@;&&&&&****+oooo@OO@OOo@o@&&&@&&&&**:*;::;;:",
"1:::::::<:3113<eyeee<;:;--<11ww777733377777237233121:***;*&;&&&&&&*:11<:<<-$&*&*;::<:;;*&@&;:1-<::&+@O@@$+&+&&*:::-&&@;:::1,::1:",
"1:11111<:131:-<yeey7;;:;*----7277773737777777777323<::::*;&&;&&**;;::<11<<<<111:<<1<111:;&*<<1<<1<3yy3:-$$+$&&-<1111:1<<111:1<11",
"11<1:1111173:;1yeee<;:;::::::337e773q777yq77y722231<::*;;***&*;*****;<<:11<<<11<<<:1<<11;*:1<<<<111e7ee2<*+*&&<<1<<<<<<1:11::111",
"<31:1::11132<-:1ee1-:::;::::<:733wwww7w7777q3323<<:::;*;****;&&******:<<1:<<:1<<<<11:<<111<1<<<<<3<e77e7<<-**:<<3<<<<<:11<1<111:",
":1<<1313333<;;-;11:::*-;;::;:*<<3327277747423:1::::*:::******&*&******::<<<<<<<<<<<211<:<1<<<<<<<323e7e7<33<1<<<<2322313113<1:11",
"11<<11132332***:::::-;**;*::*:**::--2272747<1:::-**:*;********&;*****;:<<<<<<<<<111131<<<11:<<233<32eeey13<<<<<<3323323311111<<<",
"<<<13131<331;&*:;:;:;***;-:;:*:*::::::17777<1:::;***************&*&***;1<<<113<2<11323<32<<<<<3212237yyy732<<2<22323321<111112<<",
"<<1<<1<11731***;:;;:*-;:;**:::*:*-;-::<e331-1::::;************&*;&;&**:1<<:1<22231113<3<222<<32233122y7yy32<323332322313<3<211<<",
"11<3377317:****;*:;*:1<:-**-::::;::*::::**:-::::::******;::*;***&&&&&&*;**-1<<<<<<:<22737222323221<<<-1;-<<<2332232111<333732311",
"7737777<<<*&&**;;*;<12331112<23:::**;;;;*****::;;:***;*::;;:;:;*&;;&&@&&***;***-*-<<27777777233723<<::::*****<2232311<37y7773377",
"7777773<-:**&;&::<21323<1223321:::;-*******&**::::;::;:;;:;:;:;;&&&&@;@@*;;**;*:*<227777777777y3113<:<::*****:13722<<1777777y777",
"77777e3-::&&&;;:<3<<31<3331123<::;****;***&*&*;;;:;:;-;::;:;:;:;;;&@@@@;;;*::*:;<<277y777e77773132<-:::::;**;:3<7773337377777777",
"7777731:;;&&@&;;<13<2<2<2132<<-;:**;*;******&&&&&&**&*:;;**;;**&@;&@@@@&*&*******-27777733332:::::-:<::::***&&::7777777<23733777",
"777733<::;&&&&&&*-<<<2<222<2<<:*;*;*;********&&&&&&&*****:;*&&@&@@@@@&@;&*&*****-*332727y33<:::::::::::::;*&&&;;<377777<-3377777",
"773e33<-:*&&&&@;&;&*;*:<<222::;*;*;;*;**********&&&&&&&*&;;*&O&O@@@@@@&&;;&&******333e333<::::::::::::::::****&;:333777-*<37e777",
"77e3371*;&;&&@&&&&&&***12<11::*;*;***************&&&&&**;;;*@&@O@@@@@@@&&&&;*****-373937<::::::::::::::::::*&&&&;-y3373<-2333777",
"*-:*$+**:**;;&&&@@+&&&&*<-:::-;********<<<<******&&&&*&&OooOoooo++@@@@&@&&&;;&&&&@*:1331::::-:--::*:*:::-*:*-**&@&:13723<**@*:-*",
"+++++++*:*:*;&&@@@&+&+&***::::-;******:322<2<-***&&&&*ooO o ooooooo+@@@&&&&&&&;;&&**&*;;&@@@&**::*:**:*:<<321<*&@@+&+*--++oo@o@o",
"+++ ++++&;*;;&&&&@&@&O&+&&:::::<<*****<2<2<2<<2<*$*$++oo OooO  OooOo@@@@@&&;&;&&@@@&&@@@@@@OO*:*****:*::322<<3&;&o@@$+++++oooOoO",
"++.+++++O&;*;@&&@@@@O&@&&&::::--2<****<<2<2<<<****$+++oooo OooOOoo oo@@@;@@&&&;&@&&&&@@@O@@@&OO*:::**:::23<221;&&@@@++++++++@o@O",
"+.....++o@&&&@@@@@@@o@o&@&::::::<<<**--*-**-&$ +++... ooO XX  XX  ooo@@@@&@;&&@&@@@@@&@@O@OOoooo++&&***<<<<<<-&@&@OO++.++ . oooo",
"... ...+oo&&&@@@@@@@&@&@@@;:::::<<22-<**$++++.+...        XX OX o  ooO@@@@&@@@@@&@&@@@@@@@@Oooooo+++&+*<<<<<:*&&&@O@+.+...  oooo",
". ...... .$*+&+$@@&@&@@&@&&;:::::331<2*&$ooooo    ..  .   +   oO Oo  @@@@@;@@&@&o&o&@@@@@@@oo@ooooo+++*<111*&&&&&+++$oo....... .",
"... .... .$+&+$$@@@@@@@@@@;:;::::3<<<<*&o@ooo  o     .... . oo  X  oo@@@@&@@@@@@&@&@&@&@@&@@OOoooooo+&*<111&&&&*++$++o . ..... .",
"..+ +..+...+oo@@@&@@&&@&@&&;:::&*13<1<;OoOoo   ooo+$+++$++++o@@@OOoo@@@@;@@@@o O@&O&@&&@&O@@O@oooooo@o&&@@&@@+$++$+$++++++.+++..",
".+++$+$++++.o@+&@@&&@@@@@@&*:::**;::11:o@ooooo  o+++++++$$++@@@@@@@@@@@@@@@ oooO@o&@O&@&&&@&@&@@+++oooo@@&@&@&$+$+$++$+++++$++. ",
".++$+$+$oooooo@@@@@;@@@@@&@;:::;&+@@@O@o+ +    o++++++Oo+$+$+$@@@@@@@@@@@@@ooo  o+*o@&&&&&@&&@oO@Oooooo@@@&@@@@@&+$+$++$$+$+$+$.",
"++$+$+$.ooooo@@@;@@@@@;@@@@@;::;&&@@@ooo   . ooo++$++@O@++$+$+$$@@@@@@@@@@O ooooo@$&&&@&&@&@@oOOooooooOo@@@@@&@@&$$++$$++$+++$$.",
"$$+$$*++o@OOo@@@@@@@;&&@@@@@&::1*&&@@Ooo.   .. o++++*o@@$$&+&+&$@&@@@@@@@@ooooooo@&&&&&&&;&&@&&&@ooOO@@@o@&@&&@&++&+$+&+*&&$+$+$",
"$+$$*+++o@O@O@@@@&;;@;;@;@;@&;:11;&@@@@o.++ + oo+&+&+&@O$$&&&&&&&@@@@OOOOOOOOOOOo@&&&&;&;&&@&&@@OO@OOO@@@@&&&&&&&&+&$$$&$$**$+$+",
"++&*$$+$@@o@o@&@**$**$&;;@@@&&:131*&&@@@+ +ooo++@o&o&O@&&&&&&@&&@@&OOOO@++++++ooo@&&&&&*&@&@&@OO@O@o$&+o@O&&&&&&*+&&&$*$&+&&&&++",
"*&&*++$+@@@&@@@&$**+&$;@@&;@@*:2231*&&@@+ ++oo++O@o&@&@&@&@@&&&&@;@O@OOO++++++@oO@**&&&&&&&&&@o@oO@@+&&+@@@@&*&@*&&&+&o++&o*&&&*",
"&&*1<*$$o@:11;&@$-22::*&&&&@@;131331&&&*********&;*;&&*;;&&&&&*:;&@OO@O@-2<-&+++&::*&&&&&@&&&&&&&;1927771:;;*:-*&&$&&++***&**;&&",
":*-73--*:eee33;;<72233:&&@;&&;2<1231:@;:********;*;**;;**;;;&;::;1@@OOO;733333<<1:1;;&;&&&&&;*&;**eeeyq7ee9eyy3<<<<<<<<<2---;::*",
",,:e7<-<yyq7372742272722;;*&*<<2323<<*:;*-;*;;*;*;*;;*;*;*;**;::<3:oOO@13333331<<:<*;*&&&*******:*3e7eyyee7yee<3,<<<1<::1::::::1",
":::e7<<777q77372224272773333272733331:;:;;*;;*;*;*;**;*;*;*;:;:::23<&&11237333<:<<:;*************:-y7e7qeeeye<3<1<<<::<:::<::,::",
"<:1eq727qyq7722744447722223372733333:::::-;**;;:*;;*;*;*;*;*;;:1:3373311<<3373<<<<::*********;*:;<<3yyyyeeey77222<2<<<1::::<::1:",
":1:ey32qy7y77777747747377777732332<:::::::;:::;::;*;*;*;*;*;:::::<32e33:<<11<<11:<<1:*****:-:**:;<<<3yqyeeyy23323232<<:::1::<:11",
"<:<e7<<eeeey77777747474q7777333<<<:::::::;:;:::;::;*;*;*;*;*:::::333333<<<:11<<<<<<<-**:*:*::*:*-*<<<2eyyqyy3232232<<-<<:::<::<:",
"::<y3<<7eeee727777777444737233<<:-:::::::::::;:*;:;**;*;*;*;:::::1339333:<<<1<:<<<:<:*:*:*:**-*:-*<<<<2yyyyy3323322<----:<<::<::",
"::<;*--3e1,:-**2277qqqqyyty732--*::::::::;::::1<::::*;;*;**;::<:&*<2133111<1<<1<<<21<-:::::<<:<<<--<<<<y7733233232<<<<<-::::::::",
"::;****:;*;;**;37y7ytttyyyy2722-::::::::::::11111::;::;:;::::13:&+&$@&*&*&&*:<:<<23332323<<<<<<<<<<<<<<<2223<2232<<<<<*<:<:<:<::",
"::;&**&*;&;;;*:37yqytttuqyy733<-::::12<<111<<<1:<<:::::;::<<377:*@+&+&&&&&&&::<<<<13333323<<<<<<<<<<3<<<<<32<323332<<<2333331:::",
"::*;*&*&;;;&**137yyyttuuyyy231<<::<<111::<<<<<1<<11<1113377773e::&&+&$$&&&&&:<<:1::<23313<<<<<<<<<<<11<222<<<132e777777773eee:::",
"&&@&@&&;&&*&*&;1yyyqyyyyeey332<<<<<<<<11<<<<<<<<<:<:<<377777777<;;&&++$+@@&$&;;:;&&***<1<1<:<<<1<1<<<-111:<<13337777773733339:**",
"&;&&&&;&;&&&&&*;yqyq77yyeyy7233<<<<2<323<<<<<<<<11<<<73773373777:**$@@$$+@+&@&@&&;&&**:1<23<<:<:<<-<3111:11:1:1123733773379331&*",
"*&&&&&;;&@;@&&&*7qy7eeeeeee33332<223232323<<<<<<1<<37733773733733***&@$+$&&+&+&$&@&&&&*:<<1<:1<1<<:11<:11:1:11:111133337733931;*",
"&&&&&&&&&;&&&*;;7yqyy33eeeey31321332323232<<31<<<3737337377777373***&@@@++@@+&+&@@&&&;;;<<111::11:<<1<:1:111:11:::<:<<33733333**",
"o@@&:1:;;&@&&*;&7e2<;&&*3y7<**<123232323232<1::*<773373e7<**;1377<***+@@$&+@&@&+&@&&&;&;2<;&&@&::1<<11:1:1-<111:*&$&*:<13732<*++",
"@@&;1111&@&&o@O@+o*++&+&&*+&&*<<32323232323<11;&*27733e3*$**&*<33:***&@@$&&&@@&&@@@@@@@&&&@o@@@*:;;:**:;****;*&+O@$+@&**:;&++++$",
"o@@:1,,:&&&@@o@O+++&+&&++$@&;&11<332323323<<<:;&&&<3373*&&&&&*&*1***;@@@@;@@&@&@@@@@@&&@&@&o++&&;::;;;*:****$$$$@+$$$+$+$+$++$++",
"@o@&:1,;@;@;&;&@$+$++++&+&@&;&,12223233132<<1:**&&&;<e<&&&&&&&*&**&*@;&@@@&;@&&@@@&@@@@@@&&@+@+@*;:::*;*****$+$++$+$$$$$$$$$$+$+",
"oo@o:,:&;;@&&&***$+++$+$&@@&@&;;<1112:<121<<:&&+@&&&&:&&&&&&&&&&&&&&&@@&&@&@&@@&&&@;&&&@@;@&oOOo@**::**:****$$o$++$*++$+$+++$+++",
"@@@@&,;;&&;&&;*****++++++oO&@@&;*-1::<:<-<<::*+&@@&&*&&&&&&&&&&&&&@&@@;@@;@@;&&;&&&@&&&&@@&@@O&@o**;*:******&&*+*o*+&+&@+&@@@+&+",
"@@@@@;;&&***********&oo@OOO@;@@&;:,,:1:11:1::;&@@@&&&&&&&&&&&&&&@&@&&@&@&@@;&;&&&&+&+*&&&+&&@@@O@@;*;:*******++&+@@@@@@@@@@@O@O@",
"@O@@@:;*&************@@o@O@@@&@&&;::1:,::1:1:;@@@@++&&&&&&&&@;@&&@&@@&@&@;&@;@&;&&**&&&*&&*+@@o@@o&**;*::*-***&+&+@@@@@O@O@@@@@@",
"O@@:9::;*************&O@@OO@&&&@O@;&@oO;1:::1:Ooo@&&&&&&&&&@@&@@@&@;@@@&@&&&;*;:-<<<<3y-+&&&&@@@o@o&:;;--**:<***@@@@@o@@,999,@O@",
"@@1e11::*************O@O@Oo@&;@@oooooo o*1:<-&o o@+&&&**&&&@;@;@&@@@@&&@@@@@&;;:<<e7eey71&*+&@@@@oO&***-:;::<<111&@@@@@eeee99,@@",
"19e1;;**;***********&@@@o@o&&;&@oo Oo OOo@;:;@oooo@@****;&&&&&@&@;@@&&&@&o+&;;;1<<yey7yyy7<---<<3*;::*:**:::<<11ye-&+$,y1119e995",
"eee:&&*;*;;*********;&@@@@@&&;&@ O oO o ooOOO oooo&@$***&;&@@@&@@@@&*;*&+&&*;*::-<7eyqq7eyyqeyee3;::*:*:*-;:<213eey311y1;;;,9e9e",
"e95;&****;*;*:******&@@&;@;@&&:;O OoooO oOoooooooo@&**:*;;&&@&@@@&@&&:<<-***;::1<<y7qy7yeee7eye2:::;:*:*;-::<<117e7ey3y:**;;59e9",
"99>&*&*****-;*:;;*;*;;;;@;@;*:<&OoO OOOOO ooooooooO&*;*-1:;&@@&&@@@&:1<::<<:1:11<27yqyyyyyyye3<<::::*:*:*::<1:113eyeyee<*;>,,e9e",
"e9:*&*&;&**;*;:**;;*;*;**;*;<<:&OOOO@OOOOOoooooooo@+**--<:::*&@@@+&:<<<:<:-<<<<:23yeeeyqyee1:1:1<:1::--*:::1<<:111eyeeee1:::,9e9",
"9e1*;**&*&******;****;-;:*;:<<<o@OOOoOOOOOOoooooooO&****::::&&@@&&&::<:<<<<<:11111eeeyyye1:11:1::11:*-*:*:*2<11111,eeeeye:::,yee",
"9e1e7e11<---122<1<:<<<1<<:<2<2<&OOOO+*11;OOoo Ooo@oO*-:1<<<:&&&&&&**<:<<13e731<;:<eeyyy3<*:::::1:1::::;::::::;;:*&@@&;39e::::199",
"::11333e7777e33<<23<3<3112<223<:OOOO&1e33;OOoOOOO@&*<<22<<<<**&&@;;*233713131:<:;**1ee721:1:1::::::::::::;:;:;:;;&;@@&::::::::::",
"::-7737727777312<3<3<3<3232323<3@Oo@-3e173&oo&++*-<<<2<<<<<<11<<391973737333111;;*::11e1:::<:1:1:1<:::;:;::;:;;:;;&&@&;,::::::::",
":--377737772773<2<3<3<32323232<13;&-91y3373-&*231<<22<<<<<<<<1:<133333373733<:1:**:;:<:::<:::::::::::::::;**:;;;:;@@@&;:::::::::",
"::-<732337777732<2<3<323232323<29337373333331373<<2<<22<<<<<<<1<<13373333333:**;**;;:11:::1::1:::;::;-*;;**&@@@&&@@O@@::::::::::",
"::--373773337712313<3232323232<<3973733ey1e3y333113232321<<<<<11<111233733333:;*****;::1:1::::111::;:;;**;+&@@@@@@O@@&;:::::::::",
":::::<13e137732232323223232323233e333e37733e3333<32323232<<<32<:<<111<<333333<****;&&:::::1:1::::;--:;;;;&&@&+&$Oo@@@&::::::::::",
":::::::3373773<<122323323232333<333e3ee33ee33e333<3232323<<<11<<1:11<<<<33e<331;;*&&;;::::::::::::*;*;&&;;;++&++O@o@&;;:::::::::",
"+&*:::-<73<-;&&::3233<<::<<<<:::;:33e11:**-::--*<<<32323322<1:::;*&:<<<:1331333**&@&&;:::<::::::@o@o&ooooooooo++O@&@@;::::::*:&@",
"&&*-*:**<*+&&&*::<<1<<:<<:<<<:<:***;;:*******:**<<22323223<3111:<:-;:<111331-***@&&@;;:1::::::::o@ooOooooooooo@O@&&&*:;:;;-*:*@@",
"+@*;*&+&@&@&@&;:::1<111:<::<:1:<:*&&;&********:<<<<32323323<3<:<1:1::::::;&@@&@@@@@&@&;:::::::::O@oOooooooo oo@o&&&;&;:;:*;;**&@",
"+&:**+&+@@@@&&::<:<:::11:<<<:<<::&;&&********-<<<<13323<2323<3<<:1:11&&&@@&@&;@@@@;@;;,:::::::::@O@O@ooooooooO@@&&&;*;:;:::;:-@@",
"+$&@$&+&@&@@@@;:<<:<<:,;<<::<<:<;&&@;*******-3<<<<<<::<<3323311-1:1::;@;&@@@@@@;@&&&&;;:::<::11::@oOoOoooooooO@@;;&&;;&&&&@&@Oo@",
"+++@++++@o@@@@&::<11::::::1<<:1:**&&&&&;*&&&**-*-<:<:-:<<-<::<:**;;::@@@@@@&@@@@&&&&;:,11:1:1::1:*&O@OOo@@OOo@&@&&&;*&&;@;&&&&Oo",
"@@@O@Oo@o@+@@@&&1::1:::,::<:311:;;&@&*****&&&***<<:1<:<:11:1:1*&@@@@&+++&+&+@@;&&@&;*:1<::<<<:<:<::&@@O@+$+++$&&&;&&@;&&;&@;@@@O",
"o@Ooo@O@&o@@@@@;::::;,:;;::1::1:;&;&&&***&&****-:<<::<-<:::;:*Oo&@@@++$$+&@&@&@&&;&&;1<:1<<:1::1:1::@O@O++++++;&&@;;;@;;;@;&&OO@",
"OO@@@&@@&+@@@@@&::;;:@oO&:<:<<1:;&&&&&3332*$***-:11:&+++@Ooooooo++o@&&***;*&@&&&;&;@;:11<11<:<<<11<:@OO@++*3<;**;@;@@@@&&@O@@oO@",
"o@o@@&&@+&&&@@oo;;;@@Oo O@::::::;;&&&;<e37<*&+**1:1&++++oo ooo@O$+&*:*;*:;::&&&&&*;;:::1:1:<<<11111:&@@o+@ee3<::&;&;@O@OoOOOOooO",
"Ooo+@@&@@&;@@@@o ooooOooOo&;:::;:&@o**:373<**+++@&&oooOOo o oo@@+$;*:*;::;::;&&&&;1:::1::<<<<1<11<1111*@o:ee11:<;;;;&oOO++++Oooo",
"O@+$;@@;;@@@@@@ooo O  ooOO@;:;:;@ooo;*:9373<*&++o@oooO   o o @@o$**;*;;::::::*;;:::::1::::11<131131<111:*yeey<1:::;;;&@O++++oooo",
"$$+$@&@&&;&&;@&&@OOoOOOoO oo@@ooooo@:;<77777<:*+@OOoooO XXXX ooo+&**:;:;;:::::;:1:1:1:1:::11111132233111<1e7e31<11:::;@++@o@OO@@",
"++++&@;&;@;&&&&@@OOOOOOOooOoooooo@&3373www77<<<+@oooooOXXX    oooo*;*:;::::::::1:::1:1:111133232<3313131<<eeey31111,<:*@+&*+@o@O",
"+++*&+*&&&&&&&&&&ooOo@OOOooooO@@$*<3737www7q7<<*o++oooo         oo@**::::::,::::1:1:<11::<<3<2<27y1223<133yeee72<112:<:&@@@@+++$",
"+$+$&&&*&&&&&@&&@@OOooOOo@o@OOo@*3377ewwww7773<<$+++oo           oo&;;::::::::1:::::::::<<1133<yyee<3<3113y7yyyy<<<<1:<:;@$&++$+",
"<<-*@&&@**--:<::::::**$+O@OO@*,17wqq77yq7qq773<<<**$@oooO@&&&OO    oO&;::,:::::1::1::::<<1<<213yyy<*:121<1yyyyyq11<:<<731333<<<<",
"<<2-;;&&*-<<11<<1111<<<<;;;,ey3yww77y777qq773322<---&&&&&@&&&&@oo  oo@;*::1::,:<:1::::<<<1<<23yyy<--::2332yyq722<:;<<<<3y377<<<<",
"<<<*&&@&*<<<<<<<<:<:13777777e73ewqqq7337q7q72272<<::***&&;&&&@@ooo  oo&;:::;::<:::::::11<1<<11eyy::;:::11ee<:::;;:::11<<77722<<<",
"<<<-&;;;<<-<<<:<11<<37y7yy7q3e3ww7773273qqq77732<<<::*&;**&&&&&oo   oo&&;::::::::1:::1:1<<<<::13*::::;::::*-::::::::11<<277732<<",
"<<<<<<1<:<<::<2<1<37y7y7777yy7ewwqe3332377yy72232<1:::;*;*&&&@&oOOooO@o*;**::::::;:::::::<:::::;:::*;:;::;:::-*:**::<<:<<77771<<",
"1<<:<<:<<<<<<<1137eeyey7yqqyqy3w77732732777777722211::::::;;;;;&;&&OOo@&-:*-*:***:;::::<11<::*:::**:*;;:*-;*:*-;::::<<11<3737112",
"3113<2<<<<<<<-3<77yy7yeyyq7yqq7wy77332233y7y773332<::::::;;;*&&&&&&OOO@O*-**--*::*:*:*::11:::;;**;:**;*;*:*::*::::::-1<1<3737<<<",
"2112223<<<<-<<3eyqq7yy7yqqyyqq7777722331277777733<:<<:<::;;;**&;&;;@OOOOo-*-:*::*:*:*:::111::;*;;**;:*:*:*:**:;::::-:*<1<2737<<3",
"+&$*<472<<<3323eyqyq722:27y7qy7-7772322<<27773321<<:::::1:11<2<<&&&&@O@O-31-*:**:*:*:*;:,;&;*&+;*-*;*;*;:::::*;:;***::::-33<&$*o",
"+$++$7qq7<<<2377yqy3<-::--2yyy2-27732<<-<<7322333<1::<111<<332221;;&;@O&3<e<:****:*:*:*:;@&@&&**;;*::*;:::::***&*****-:::13$++$+",
"$++$+<yqy2<<<<ee7qq2::;::::1qq2-:3e7<<:1<2<<:<<1<:::<::1<<2232231<**&@O:7232<-*-:*:*::**@&&;@&@&-*;*;-*::::::*&*&*&;*&;;-<*+$+$+",
"+$$++*77q2<--<yyy7<-;:::::1:7y3-:1373e11<-<-<1::::<:<:<<:<2223323<<*&&;1333733<-*:****&*&@&@;&&;*;*;;*;::1::;**&*&*&&;*****++$+$",
"$+$+$*-377<<::::1:--::;::::<<12-:**::1,;<:::1:::::1::<:133333722323<<<1133273333:*;-;&&&@;@;@&&@*&&&***::::;**&*;&&&&&*&&**$$+$+",
"&+$&***e77-<:<:<:::-*;;::::::---:*;:::::::::::::<:1<1111337373723323233322733331***;*@&@&@&@;@@&&&&@&&&::::;**&&&&&&&&&&*&&*&$+&",
"*+@&&;:173::::::::::::;:::::<::;****::::::1::::<<<<1<<1:<227727372723333e133332*;&&&&@&@&@&;+*$@@&&&&&*::::*&&&&&&;&**&*&*&&&+$&",
"**+*&&197e<::::::::::::::::-**:****;;<::::,:<:11:<<1<11<1<722723273333e137317<**&&&@@&&*@&;@&&&&&&&*;*-;:::&;&&&&*&****&*&*&&+**",
"13311:@&*:;;;*&;:*:::::::::*:*****&@&$**:,:::1:<1<<:<:<<<13772231:<-::::-;:**&*&;&*;;:::::;&&$$*&&*&&o&&&@@&&&&&*&;*<22<:*:11333",
"33331,O;&&&@&&&;*--;:*:::::1::**&&+++&**:::,1:<<<:1:<1<1<37772321:--:;:;***&@&&&&;:::11::*@&$+$$@@o&@&@@@@@@&&&*&&*<333733333333",
"3333e;&@&&@&&@&@*:;-*:*;:::::***&+@&@&&&;::111<:::<:*<<1<<3e723<*::;:*&;;&&&&&&;:<:1:1::*&&@@@$+@@@@@@@@@@@@@&&:;*-3373333333333",
"33331:@&&@;@@;@;&&;&**:*;:<:-*&*&+@@&&&&***1<:1:1<<:*::1<<73732:;:;:***&&&@&&;;:1:::1:1*&&&@&O$$@@@@@@@@@&+&@;*11133323333333333",
"33333:@@@@@@@@@+@@&@&&;*::::*+o$+&+&&&&****:<<::;****:<1<<77e::*::;;**&;;@&@;&;::1:1:1;&&@&@++$$&O@@@@&+&+&+@&&:33e3333373333333",
"33331;@@@@@@@@@&@@@&&&*;:::*&&$+$+&@&&&*****:;;***&**:::<2e33:::*;:****&&&&&&&;,1:1:1:;&@;@&&o++oO@@@@+&+&+&@@&&3313233333333333",
"33333:&@@@@&@@&+@@@&@&***;::@@++@&@&&&&&&&&&&*;**&&&*:::<3337:;*:*:**&**;&&&&*&--:1::1:&$&$&$$$+++$+$*+&@&+&+&&&133111,;-1333333",
"*1313:O o@::::::*&@O@&*&*::*&++$@@&&&&&*&&&&&&&&&&&;;*;;19377::**;*;;***&&**&+@@$-:<<::-*+&$&$$$$$+$+$++@+&+@++&*3313,&@*133331;",
"+o+-3:O@&;::111:11:&@&*&*&&&++$+@@&&&&&***:;&**&&&&&&&;::;;**@&;;*;:::::,1:;@ooooo+$*&&*&&+++++++$$++$+$$&*-*&+$@*:&*@;@*:33:@oo",
"+o+$1;@;:::1:1111:,;@@+$@+++$$$$@@@&&&*;::::;&**&@@@@@&*&&&&&&&;-<:1:1<<:11:oooo+++o+++$+&$+++o++++$$+$+$o&$&+++++O@@@@&+*11@ooo",
"ooo&;*:;::::,,::<<<:-o&+@@@@++$&&&&*:;:;:::::1:*&@&@&@;@&&@@@&**<<:<1<:1:<-&o  ooooo+++&$+++$++oooo+++++++++++++++$&@&@&&&&&@ooo",
"ooo&*;;:;;;:::1<:;&*+$o+@@@@$&&&::;*;;::;::::<1<*@@@@&&@&$@&@&&&**::::::<*+oooo  ooo+&+$+*$++++o oo++++++++++o+++$$+&@&@&@&@@ooo",
"oo+$+@*&&&&&&&&+&&&&$$++@@@@@&&;:;:;:;:;:::1<<11;&@&@@@@+&+&@&&@&@&&;::1*&oo o   ooo++++++++$+$+oo++++++++++++&+++++o@o@Oooooooo",
"@o+++@+&&@&@&&**+&*++$$@@@&@&&*;;:;:;:;:;:::<31:&&@@&@&@&+&@@@O&o&o&*1::&ooo   o ooooo++$+$+++++oo+++++++++++++$+$++@o@o@Ooooooo"
};
