/* XPM */
static char *f826fce441a84bc59e35bf4be0189c69bQKOvpGnbjjhnPBb[] = {
/* columns rows colors chars-per-pixel */
"128 128 79 1 ",
"  c #2D2F8F",
". c #2D2F91",
"X c #2E3194",
"o c #313396",
"O c #33359A",
"+ c #34379C",
"@ c #33389B",
"# c #32389C",
"$ c #33389C",
"% c #33399C",
"& c #32399D",
"* c #333A9D",
"= c #35389C",
"- c #36389D",
"; c #36399D",
": c #34389E",
"> c #35389F",
", c #37399E",
"< c #36389F",
"1 c #37399F",
"2 c #353B9F",
"3 c #373A9E",
"4 c #373A9F",
"5 c #333C9F",
"6 c #343C9F",
"7 c #3639A0",
"8 c #3739A0",
"9 c #373BA0",
"0 c #363AA1",
"q c #373BA2",
"w c #353CA0",
"e c #373CA0",
"r c #353EA1",
"t c #373DA3",
"y c #353EA2",
"u c #373EA4",
"i c #383BA0",
"p c #383BA1",
"a c #383BA3",
"s c #393CA2",
"d c #393DA2",
"f c #393CA3",
"g c #383DA4",
"h c #393DA4",
"j c #393EA5",
"k c #383FA5",
"l c #3A3EA4",
"z c #3A3EA5",
"x c #3A3FA5",
"c c #3A3FA6",
"v c #3640A4",
"b c #3741A5",
"n c #3840A4",
"m c #3940A5",
"M c #3A41A6",
"N c #3B41A7",
"B c #3942A6",
"V c #3843A7",
"C c #3B41A8",
"Z c #3A43A9",
"A c #3844A9",
"S c #3A44A9",
"D c #3A44AA",
"F c #3B45AA",
"G c #3946AB",
"H c #3B46AB",
"J c #3A47AB",
"K c #3B47AB",
"L c #3A47AC",
"P c #3B47AD",
"I c #3B48AC",
"U c #3B48AE",
"Y c #3B4AAF",
"T c #3C48AD",
"R c #3C49AD",
"E c #3C48AE",
"W c #3D49AF",
"Q c #3D4AAF",
"! c #3D4AB0",
/* pixels */
"XXXXoXoooooooooo+ooXXooX$XX&X$XXoXXXo$O=qt61OoooooXOoooooo.ooooo-8+8<o78O8O8O8X.  o.o o.oo..o.oXXXo.o.ooOO++O.o.oo..o o o.. o..o",
"XoXoooooooOoOoooooXooooO$X&XXo&XXoXo$$@@=s=tOooooooXooooooooooooO--O777OO8888Ooo   ..o..  ....XXXX.o.oo+OOOOOoo..o.o o o ....o.o",
"ooXXoooo++++==1666tJAAJPAvrXXXX&XoXO$+$tqst=oooXXXOo=ooooo.OooooO88+7ooXXo<8<<o.X XX.o.oo....oo.XX..o. ..oo...oo..o. o .Ooooo.oO",
"OOOO++++=++==1=1=6mJRJPP!IG!Gr$X$$$suuuqu=qqoOoooooOoOo=ooo.ooooXOOXoXoX.oX. o.. XXoooooooooo..oXXo. ....o......o..o.ooooooOOOOO",
"OOOO++O++++===@ss6JJFRPRPRPW!!YGlulllqqaqqq=+XooXoOoOOoOOOOoOoooooooo.XooXXXX..X. XXooooooooooo.oXX    .o..o.XXo..XX.ooooXOoOoOO",
"OOO+++O++=++qs=666mFIIRPIFJ!YGAvhhluqussqlq+OOooOOoOoOOoOOoOooooXo.ooooXXo o....o X oo.oo..ooo.o.X.   ......oXXXo....Xo oooOOOOO",
"OO+++=++=s=4t=sqstsslJJPII!RFAvvAhhhslhqslq@OOooOXOoOOOOoOOoOooooo..ooXoooX o.oX.oooooooooooooooo.X.X.X.o...o.XXO...XoXoXoOOOOOO",
"O+++=+=+1=t411=ss==6qtJR!R!RmlmmlhhAhhuaqq=tOOooooooOOOOOOoOoOOooXoooXXXo o XXXXo oooooooooooooooO.X..Xo..oo.oXXooo.X XX.OOOOOOO",
"++O++++s=s=ss=s=s6s141JRP!RJsAsChhhllhalstqqOOOOoooqoOOoOOoOoOoOoooXXXXXo .o.o o.o.oooooOoooOOOoOo...oo...o.XXOOOoO...XXXOOOO$OO",
"+OO+++++s=s==s=s4161s=RIPP!mmlNlAlljhhauhs==OOOO=oooOOOOOOOoOoOooXoXooo. oo.o.o.o.o..ooooo+ooOoOoo...o oo .oXXOoXO..ooXXXOOO=OO$",
"1+++s=qusl=+$=s=4=6=4=t=1===qlslhhllhhalhulqqOOO7oo+OXOOOOOOOOOooOO$sq-s--O-----ooo.ooooOO+++7+s77+qlh-.o.ooXOO$q=+o.OXXoo$=++q+",
"=1===qllhl=ss=++44=OOO+O=+qO==lsllclhhlahhsqs++@o7ooOOOOOOoOOOo-$o@t=q-+-----f---+oo +o+qss7ss+s888+lll+o.ooOo$stsq=.oOXO$q+q=qq",
"s1444sulhl=s@==s===OOOO+======ssllscjjllulllq==+o+ooOOOOOOOoOOOooO=t-s+o.oossss8+s++++=s==qsq+sq8888llClo.oOO@q==qqqqoOO+=s=+=11",
"+s114slsluq=+ss=44=OOO==========l-ssAjllAhlcsst+8o8OOOOOOOOoOooO$qq=-+o.o.o+s-s+q7s+ss7qsqq+7sq=88sfCcCls++q=qt=sts=s=@qq+q=sq41",
"114s4mslsuqOO+OO=q+oOO+=++OOO+++O-+++-shhAllt=1=7OOoOO7OOOOOooooOt77++....Os7sss7soss+qs+ss=s+qq8hlCCCCls1sss=sqqqtqtqqq+s=q4444",
"11414slsusqt@=$OOO=ooOOO+OO+OOO++++++++shulls41=7o+O7OOOO8OOOOoOq$q7s-+OO+s+s-s+qssqsssqs+sqq=qshccCCCCNs1t=tqtlhts=s=q=sqs=4444",
"+s+qaaaayaaauaaaOOOoOOO++OO+OO+OO=OO==o1sllsss=1+OO+OOO+o7+XoX+oOqq+q=qq8h7a8a<8888a88aas7q+s=qlCCCClAAltsqqqtuqutq==stqsq=s=s=s",
"s+s7aaa7aaaaauul=+OOOOO+++++O++OO=+O+=++11llls=1=O+O++OO+OO++&O$q=7qqqq=+78a88<<8888a88aqsssssalCCCCAhAAAAuqq=qqqqustmslt=q=s=s=",
"+s77+777#O+#uhaj6@Oot==++sqs==+OOO$O+O++s+lllsOO+++OO+++O77oOXoo$tq=qtqq+7+78<OO<88<88fzhssssqslCCAsCllu1=$oo$$$O6tqt=susluq=s=s",
"s+7+7o77OO++aaaas@X@s=sqs+++1++OOOOO+O+++qhl=OoOO++++++++oOO7oooXOOOOOOO777+77O<<X7<8zzzhh=+77qshls1++OO$O$$$oo$OOOqqsqqlluqs=s=",
"+s+17O7oOOOO777atoOOt=ts1o1o+++o$OOooOOO+==qOOo=++O+$$++7OOOOXooooooOoOOOOOOqOOOO+++h8clAhss4=++11+++++OO$o$+$XoOo=$qqqsmml=+=s=",
"s+11O7O7OOO#77aaOoo@tsss;=++++++o$OOOOO$+oOOOOOOO+=OO$+$oqO7&ooooooooooooOOOOOOOO+OO-8lcuhsss411++=1+++Oo$$ooO+OO$=qs=quvmss=s=s",
"11++OO#ooOO77oo+Oooo==s=;oo1o++oOo$ooOOooo+OOoO=+O++$OOOOOOO$XoX.ooooXoooooOoOOO+++O+8hhshlq==++++++++++OO$OOOOoXOOOO6qlsls+=++s",
"=+++#7oOooOO7Oo+OooOsttq;11o++o+OoO$oOoOo+o+oooOO=OOOOOOOO7O$$Xoooo.oooXooooooOOOO+++O<hhshll=+++++++++Oq$$OOOXoOOO$tquqlls+++++",
"+++++++oo+O7o++ooooo77ss1+-o++o+OOOoOOOOOo$ooOoOO=OOoOOO&&X&&XoX.o.oXoXXoXoXoO+OOOO-OOO88hfh4fs+++=+=-+++++OOOXOOOOssustsus+++++",
"++=+++ooooOO+oooOOoo87ss11--o+ooOOoO$oOOo+oo=ooOOOOOOOOOX&&X&XXooooooXooXoOXooOOOOOOOO8Ohafffff1+++++++-++++OOOoXO$susuqusu+++++",
"..ooo+o++oo7oooooOoooOo+--o+o++oOXOOOst$=O===OXoOOOOOo.XX&&&...XoX.oXoXoXoXooo+oOoOOOOOO-fffff--OOO=1qs1q=+OOO+Oo.oOOOOOXooX.oo.",
".o..+o+ooo7O+oo+Oooooooo++1;+1+oOOoOq==ssq==toXXOOOOXX.X.......XXXoooXoXoooXoOoOOOOOOOOO-fff+oo..OO=ssssqah=+++OOXXXoXo.XXX...o.",
"XXXXo1+17OOOO7ooooo.oooooo-+1-o1OOO+=s1s==sstoXXXooXX XX..X....XXXXoXooooooooOooOo.Ooooo<+-Ooo.ooo+7s=sqstqs=qtoo.o.o...o..ooo.o",
"X.XX+oo+o7OOOoooooooooooo+o1+++1=O$qtss6lsqutoXXXXX. XX X......XXooooooooooOOoo=ooOooooOOOooo.o.O++sqsqq=qqqsqqoOXXoooo...o.....",
"...oOo+oOOOOooXoXoXo ooooo+o+-;1sssqq=stsss=$XX.X..... X........XooXooXooooooooooOoooooOOXoooX.o.o=hs==sst=qtqq=oo.o.o..........",
".. OOOO+oOOooXoXoXooooooooo+o++-1qsqts==q=s1@XX...X...  ........XooooooooooXoooXo.ooooo..OOo .X..Oqqqqqq=qsqqqqqOOXX.o.o........",
"...OOOOOOOOooooooXoooooooXo=O--O-88888O888sq+...................XXXXoXooooooooooooooXOXOoXoX.o..o+qt==s6=stsq=st@XXXXX XX ......",
"..XOOOOoOoOoo.o.XooooXoooooOO-O--8af88OO887ss...................XXO$oooooooooooooooXoXoXoooX..o.Oq=qst1stt6=qs=t=OOXXXo XXX ....",
".X.Xo.........ooXoooXoXXX.=q--OooOOooO8O88+Oo.......XXX.......XXXXXXoXXX.X.oXooooooooOooXooXXXo X=sss=4tOOO===qs=oOXoXoXXXX ..X.",
"X.............o.oXoXoXOX++++O--OooooooooOO.......XXXXXX.......XXXOXXX........XXOoXoXOXoooOXoooo..qq=tt=OXOXO$tq=qoOo oXXXXXX.X.X",
"....o........XXXXXOOOXo$77oO7O<OOoXooOoooo......XXXXXXXXXX..XXXXXoXoX........ooXoooooooOoXXOoo ..Oq==tOXooOooOOOOXoXXXXoo.o.X.X.",
".o..o........oXXXXXXXoO=7X<7O7<<OOOXooooo.......XXXXXXXXXXXXXXXXXXoXXX........XoooooOoooXOOXo o ..+qs@XOoooooXOXoooXXoXX.o...X.X",
"..ooo.......XXXoooXXOO=477+788aa88XOoooo.XX.....XXXXXoXXXXXXX.XXoooooooXXX.XX.XoooOoooooOoOoooo .XX=OoOoXOOXOXoOooXXooXXoooOOoX.",
"o.o.o.o....XoXXX.oOO.O16a77ha88888OXooo.X..o....XXXXoXooXXX$X$X&ooooooooooXXXX.+oooooOoOoOoO+o+oXXXoOoXOOoOOOOoooooooXoooooOooXX",
"oXOXXXXX...XXXXXXXXXOX$ts=qqs=s=+oXOooXX.XX.XXXXXXXoXoooooOooOoooooooooXooXXXXXXooOXOXOOoo=oo+ooXXXOXOXOoo@oOoooXooo.oooXooOoo.o",
"XXXXoXXXXXXXXXXXXXXOooO=tqqttqXoXoo.XXX.X..XXXXXXXoooooo@oooooooooooooooXXXXXX..o$OXXOooooooooooXXXoOXOOOoO@oOooooXXooooXOOOooo.",
"XXX=J$XXXXXXqlOXXXXO6=tsslq===oO+OOOOX......XXXXXooOooooOOOOOoOO$o&XoOo&=sqt=Oq$q+=s=OOOo=OO+o1oooooOO++=JJRsq=+=oXXo+++++++ooo.",
"ooO6IJ+XXXXsllloXXX=mtssllsst$+O+O$O+$OO+o+XooXXoXoooo$oO@OO@O$+$7&&7&7uul==tq$$@q==sO$OooOOo=o+=vvO+o+AIRRIqlls6=1++s++++++=ooo",
"=+=sRJR+o$ssaAPAoX@ssstaqlqtq=O+OOOOOOOOO$o+$oooXXooooOOOOO@+$++$+++&$7qsttsq=+s+qq+==+OOOOOOOOO$tPPPPRR!I!PAss1sq==++++++++O++q",
"=qs=RJRsmsmlaPPPIlsmsstsssssqq$+$OO+$O$OOo+o$$o&OOOoOOOOO@+=+$+$++$$7$qql===++q+q==t=q=OO+OOOOOO$OJIPPP!I!PRRCss=s=s++s++s++qq++",
"t=+qRRIlsmlshJPPPJtlssssllluhq+O+$O$OOOO$OO+o+&oOOOO@OOOO=$$O+=+++++$Oqulqt+=s+==q==s=s==OOOOOOO6stIPJRP!IPJP!Pstsst8ss7-++++s--",
"+=s=RIJqmsshhP!PPJllssshhvals=q++OOOOO$qO$#+q#&&$O$O+=q+==++q+=+++=Otquqs=+s=+qq=ss=+=t=+OOOOOO+O==sAPRRP!PJPPPPstssss8s-8++s++s",
"=4=sRIAllsvulJ!IIPsvssssllllllhq++++++$++++++++OOOO+++$+sO=+q+q$+O=+$uuuq=+=+=qqqq++q+q+q++qO+OOO@qqqsCP!RPRPPP!Jstsuqss+q===+=s",
"s==qP!AlsullsAI!JJusmssllmjlla=q++++$+$+o<o+++++O+OO$+++===+=++=+q==$uut=ts+sqq==qqq=++==++qO++OO+=q=1sAPRRPPPPRRAusqqq==+++qq+=",
"@==$FPAfhhur+=JPRAllsmmsllulAPhaq=$+O++++s+++++++qqq=qqltt===+=$OXOoo$Xrst==q=q++++qqtqq=q+++++O$+$qst=J!!RRRR!P!Asuslulll=O+++s",
"++=qs!CfhuuoOOOtvmlhmlllllmlPWhsq==q7q=q7qs+q+q+q=+qqqlulut$OOXOoXOXXOXXO$qqsqq=qOO+q==qsqssss=s=q=ts=qqumCAA!!R!lsqllvlllqqs=++",
"=q=q@mJuuu$OX&o$o$@tqssmlluP!!lqqs7s777777s+7777q+=qqsssms=@ooooooooooo$oOOO++sq++OOO+=qqssqsqsqqsqqq=squ=ltt=lnAssq=lvlalq===s=",
"tul=OO==r$OO$$$$$OO$qssssP!RR!lqq+s77777777s77777qqq=qqlsmt=OooooXoooooooooOq+q+7q7+qqqtsqsq=q=qs=q=q=tqqt=tssuts==qulllllllltus",
"tuu$o@+$$X$$oooooo$$=tlsmRR!!!us=q77q77qs7q7s+7777q=q=sltm@OooooXXoXXXoXoooo+++++OOO+O=s=q==q=sq=qq=qqs==4t====+qq=sqtusuususuut",
"ttt$oooO+$oooooo$$$O=$$vPP!PRPhqqssqsqqqss+s7q7777q=qqlum=OOooXoooXoXXXXoooo++qs+qOOoqqtqqsqq+q=lqqq=+q=t1=1+t=+++q==qsuusususus",
"sstOOXOoOooOoo$$$$$$vAIPPJPPPAsls7ssqqqqaqsq+s77777q7qqhh+OOXoXXO  ooooooooooOO+t=sstq=sq=q==q=quq=stq+===ss+q1t@t+q=uursusussts",
"us=oOOoooooooo$X$X*YIIJPJJPJPuqqqsh7qqqqaqh+s+7777q+7hhua+OOoXXoOO o o  .ooooo++s=t=s=qtqq+qqqsquqqs=qq+q=+===6t==qu+rurulusussv",
"tuso+++o+ooo$oooXXX$@oXXoO=OX$$=qs8qqqqqsqsq7q7777q=OooOqOOOooO ooooooooooOo +++squst@t==qqO+q=sqqq=q=q+s=$=t$=oXOooOOrvsvtvstus",
"O$$ooqqq$oOooX..XXXXoXOOOOOO+oqqq=qqqq$77sqssqs+q7qOoooOOooXO O.ooooooooooooooo+=+OOo. X.O+q+=q+=+++++q==+tq=sOXXXoXXXXoO+=u=$OO",
"XXXXO=+qqooooOooXXXXX@OOOoOOOo=s=q=qq=$qqqqqq77s++qoooOOooooOooooooooooooooooooooooooXXX.XXoO+++++=O+OO++7q=$$XoXoXoXoXoXXXXXXOX",
"XXXXos=q6oOoOoooXXXXXoOOo$OOo$6q+sqq7qr77qqqs7s7+q+ooooOOooooooooooooooooooooooooooooXXXXXo.oOO+OO+=OOOO$7+qt$XXoXoXoXoXX@XXXXXX",
"XXXXo=qqqOoooOOO@XXXXXO$$OOOoX$OooOOqq+7qqqq777+++OoooooooOOOOoo oooooooooOooOoooOOOoooooXoXX.oOOOOOOOOO+$qr&XXXXoXoXooXXXXXXXXX",
"XXXX@t=+OOOOOOOO@OXXXXXoXOXXoOoOoOoOXqq7+s+q7+ooO..O.ooooOOooOOooooooooooooOoo+oooX$X$$ooooooo...OOOOOOO$XO$oooXoXoXoXoX$XXXXXXX",
"o o --;1=++OOoOOo8oo.o.oooooooOOooXOOoOOoqqqqOOXoXooooooOoOoOooOoooooooooooooo+ooOoooOooooo=oooXXXX@@@OOoOo.o.XooooXoooooXXXXXXX",
"..ooo;1-oooOOOOo7o+oo.o.oooooO..ooOooOoOOO+=XooOooooooo+ooooooOoooooooooooooo+ooo=OOooooo=ooooXoXXXX@oOOOOooXoXooooXXooo&oXXXXXX",
"OOoo+-;oo=OoOOOOo+7o.ooOOOoooooOooooOo+Oq.XX..oXXoooooooOOooOOoOOooooXoooooooo+ooo=oOoOooo=ooooXXXXXOOOOOOOXooXoXXX$AAPGAAGXXX&X",
"oOO++--oooOOOoOO7oooo.oOOoOoooooooOXXX.oo.X..XXXooooo=o+OOOOOoOoooo Xoooooooo+oo+oooOooOoo1oooooXXXXOO@O++OoXXooX$v!PPP!!YY&$#&o",
"ooOO++++1o1oOOOO+OOOOooooOoooooooooo......X..Xoooooo+o+oOOOOooOoOoo oooooooooo+ooOoooOO+4BNNn4v**oO=OO=O++qq4s14!III!GIIPPJuo$oX",
"ooOo+++oo+-oOOOOo+OOoooooOOoooOoooo...o...X...oXo+ooooo+OOOo+ooOO ooooooooooooooOo++=s=qIRIFRQIB4===OOo=+OOs44sfvGIGIIIPJJPu$oXO",
"OOOOo-o--oo-OOOOOOOOoOooO7=s=q$OOOo..o...XXX.oO.oo+oo++o++++++++oOoooo+ooo+oo+++OO=ts=sPRRIIIIn4===O=o==++==s=;f77G!!IIPRJIP=OqX",
"OOOOo--oo-ooOOOOOOOoOOOO8s+q=q+q7OXoo..o...Xo.oOo;o1++o+1--1+q+ooooOooo+;1111o+oO@s=qlPPRRII46;===O====o+====ss17vv!UPI!RRIIuq=O",
"OO-ooo-OOOOOOOOOOOOOOOOO=qqsq=q=ooo....oXXX.XXo@+o+o+OOO+q++7+ooooooX+==;;444,,-s=st=J!PWPA7s++7===o+OO+OO==+;;-16sFFRRIRRRPA+++",
"+-oo-ooOOOOOOOOOOOOOoOOOts=+q=OX.o...o..XXXX.X Xo-+oo+OO+++7+7+ooo$oO=ss;1;14,,,=t=slRIIPPs7o+oOOO==O+OOOO++;1;;s6tRQRFIPPIP!s+O",
"++-O88s-=++qqq7OOO+87+88t=@qO.O$788+o7shs=sststt1s1s8-+++s+sqq++$$oO=s==11s;----=O$OO$$shhs7+7OOOOo=++++OO+o;oo;1oo+1+oo+=lts=++",
"++---llsluusqhqq88888h8ss=qO.Oq=88qshshhsmssq==s1111s8-ss+s7=sqq=qOOs=s=;111---+O@OOO$$=77++o+OOOO==+++++OO++;;+oooooo++=+++++++",
"++++-hhhuullhhhqqqqsaa8ahq=O$=qqtstllsvshusvqqqqqsq7ss+s7s7sqss+qqqq61==-----+OOOOOOO$$$++++OOOO===+O=++=+o+;+=o+ooooo1;=+++++++",
"++++-shhulluhhaqqs=8888hsqqqqqqq==qsslsmlumsqs=qq=q7s++ss+q++q+sq=quts141--+--O+OO$OOOO$q+++O77O=OO=+=++1o+o;o++o+oooo;;=+++++++",
"+-++++hsquluhusqqq8hsssaqhqtqqq=s6=tslmllullq=qqsssas77ssqs+s=sqOqlusm1111+OOOOOoOXOOOXO+q++qOqqO=OOo=++=;+-+;+;ooo ooo+++++++++",
"++++++ssaluhll=qqqh8a8h8ts=t=qqqqsqtsslvulalls=qsqs7ssssqs+s7s+qqqulss1;11+OO+oO+XOOOOOO+++++OoO===+==++1+o+-o+ooXXoo o+++++++++",
"++++o1;14ssssms4q7qhaa8sah7qqqqqqqqqtq=quuuluuq=qsqss7qs7s7sqqq7=qultl=q7+7+o+OoOOOoOoOoO7O7OOo++O+$+++$+++=OOOOXXXXo.oOOOOOO==+",
"+o++-;1ssss1ss6s77h7a7h77aqqq7qqqqqqt=tqllllulqqsqs7sqs77ss7q=+s+qsqsss=77XoOooOOoOOoOOOo77OO7qO+++++$+++@+=OOOOXo o.oo..oOO+O++",
"1oo+ooo+11;+OOo=7877a8shqsqq7OO7tsqqqqq=qlhu=+O++s+sqqsqq=77qqq=OO=utsO$+OO+O+oooooooOoo+Ooq7OO+$OOOO+$++OO=OOOXXXXoo.ooO.OO-oo+",
"++-ooooXooo+oOo=8777777777+q7O77==qqqqqqqlq++OOO+qsqq=+sqqqs=q++OXOqqs$OOOooo.oooooooooo.OqoO77O++++$+$$$OOOXXX.X   .o.OOoOO+-o-",
"+o+-ooXoXOooOOO@777:77777+oq7OqO=qq7qqqq+ooOOOOO+qss=qqsq+q=sqOqooOOsqqOoooo.ooooooooooo=$+qOq++++$+$$$$oXX  ... X..XXo.ooo+o1+o",
"o+o+oooXooooXOOO7777777q777q+7+qq+7q77+oOOOO=oOO+q=sss==+q7q+Oq$oO.oO=@XoooXoooooooXoooq++$+$$++$+$+$XXXXXX XX..  ...X.oooo++oo+",
"oo ooo oooooXOq+os77o+7o++qXoXO+O$OO7OoOo+OoOOOooO$=tqss7+O.XooX.oOo.OO.XooXoXoooo.+O+7o+=qO=q++$+++$XXXX XXXXXXX  ..XX.oooooXoo",
".oo oooooXXoXoXO7qo7+77o++oqOOOXOqq7oOoOOoOoOOooOOOqq=s=oo.OOXoXXX.oOooOooooXoooooOOOo7qs=Oq++++++O+XX.XXXXXXXXXXX...XXoo1ooXXXX",
"XXXXOXXXo.oo.ooo7+oq:7777O7O7qqXo$$OOoXOOoOOoOoOOOO===+=$$&&$XXXXXoXoooXXoXOoooooooo++1s++=s+s+=+=qO.o.X.oXXXXXoo..o oooooooXo X",
"XXXXXOXXooo.oo.=o7qo7oO+O7OqXo=q$ooOXoOOOOOooooOOOO+==++$o&**X$.oXXoXooooXoX.oooo+os++1+=s=+q+=1q=q.o.XOo.XXXXXOooo.ooooo;ooXXo.",
"XoX.XXooooooXOOq7+77...X.XXO+7qO$XooO@ttstt+OoooXX.ooo.oXX.$X...XXooooOoOo$ooo++OO+7++s+=+s==sq=qqO=JPPJPJv@O$$=s+o.ooOooo  ..Xo",
"o...XXXOo.ooXXOOo7Ooo.o.XX..X.O=OOOXO$stst=oOoX X.o.ooo.XX......XXooOOO$$qXq+o7oOOOO11++ss=s=s===stqJPJPRBtq$$t=+7-OooOO;ooo. o.",
"XX..XXOXoXXXOOq+O7o.X.X.XX...X..X.XXO=ls1=OOoXXX.XXoXXXXXXXX.....XXX$$$OOqOOqooq8OO8O7+7=sOsq++ss=smPJRRP=st=s11q+q+-s++o+XXX.XX",
"X.X.XXXOoOXXXXOO77X..X.X...X.XX..XXXOsttnOOOoXXXXXo.XXXXXXXX......X.X$$$qXOoO++qO88O+7<s=qqq+sqsqqqAJPPPJ1==s==1+=+q---++o  .X.X",
"XXXXXoOOoXX.....X..XX.X.XXXXXX.XXXXX1sNsm==+OXXXXX.XXX.XXXXX........XX$XOqOqqoqo7O8778s7qqqss11=qq=IPPRPv==s$=11s+==1+o++oXXXXXX",
"XXX..OoXOOOX.....X..X.XXXXXXXXXXXXXqssNnns41==XXXXXX. X..X. ...... .XXo$XOOOOqoqO8O8+77st=s=11ssqsqJI!P!Jts=tsss+s=s-s1++ XXXXXX",
"X.XXoOOoooo+X...X..XX.XXo.XXXXXXXoX+uuhhAllsq=OXo.XX.X.XXX ... ...o  oo+o++++-+11+++7+7788888s8fsqqs!P!PQs4ss1333334===OXXXXXXXX",
"XXX..OOoOOO.OX...oX..XXXooOXoooXX.oquuAuhhlqs=qOoo..XXXX XX....      o+o+1oo1-1=++-s+7++888-8888s1sqPRPRFFNss43;3344=@oXXXXXXXXX",
"XXX..oq+++7+++O+XXXoXXXXooo$auutuq+hlhhhlqshqq=q+OOoXXXXXOoX .... o  XXXoo++OO+o+=++++-78O-<88f8=s=+++sq-;-;;1++44m4ooXXXXXoXXXX",
"Xqq+q777q+7sq+q=ql+XXXX..oquumuvlllDlAhhqlqqqqtq=$$oOXOOOX$X...  .    XXooo++OOO++++-+<s878-8888qqq+$$@@--+1;oo;44msoXXXXXX=$$$X",
"ssq7qq+q7+7+q+=qqtllqoo++uAumllujcDjllhqaqqqq=qqq+$XOOoooooXX.. .  . o  o++==O=+O+O++-++87878f88=qt$++=+-o1o;-1+34ll4oXXXo+st1ll",
"hsqsq+q+q+77+7qq=tAlAAlAlhlhuAPjjPlljsuhqqqqqt=qqq$OOoOooo$X.XXX . . o.Xoo+oOO+O+OO++--s8s7s8fffqs==+$$$--;-o4oo;4ll4-ooX+qOt6sl",
"sqs7s+=sqq+qq+s=ssmAslCllAulljjjjjAjjaqq==qO=Oqq=+qO$ooooOoOXOoXo.XX  ooo+;oO+OO+O+++++--88s8888sqq=O@OO--;--;+1;;-ssN1==sqss6tt",
"q=+s7qqssss=sqq=t=JlCAmlhlDljPjjjjljuaqqtq+q$q=+++O$$oOOoOOOOoOoo.o o oo++o;+=OOOO+Oo<s888+78888s=s=OOOO+o+o+oo+OO-3sls4=qs=1t=q",
"qq=qq7q=sqqqqqqqqsllmCNCAhhllAlAAlAAssqq+++qq=+=++++OOOOOOoOOO.Ooo o..o.+O+OOOOOO+OO+78+<<<<<<<<+++OOOOOOo++o-+oOO==usltqs=qts=s",
"=s+s7qqqqq=qqs=sqsjJNFCmAAhhluchvllhqqqqqq=++=+6q+++oOOooOOoOo+OoOooo..ooO+OOOOO=O+=s+-s<<<<<<77+++OOO++++++-+o+O=+=tslvs=qq+=qq",
"qOOOhuljlllqq=qqqOq=lt=s8++++1+suuhllaqq=qq$++4=+$+oOOO+==$OOOOOOoOo+..O=ll=++OoOoOO+s-8<<<oo<oOOOOO+OO7++o--o;+OOOooO@o+OOOoOO+",
"O.OXcjjAjlAlqqquq+Os==+=O+++O+++=suuhhlu=q$s==O1+O$OOoO+ts=qOOoOoOoOO..+sust+OOo.Ooo+-8-<XXXXooOOOXOo++O+1o+o;oo=O++oOOoooXooXOO",
"XOoOAlAlDjDcchll=++++==1++++OO++O=ltuulluq+=4==+q+$OOO+==ss=s+++++o+O .+sqsu-OOoooooOO-Oooo<oo7oXoOOOqO7o11o;;1+OO=OOOooooooXooo",
"oXotJlllcjccjlCcqq+++=1+1+++++O+++qtvluuulq$1===+q+OOOs=s==q=ss+1ss+O+=squus-OOooOooOooooooooooooOOOOOO7o1o1-oo+OOOOoOOOoooooooo",
"ooXoqqulDcccDcDcsq+++++++++=+++++++uutuululu====+7+++q=q=ssq=s+sssss7slsqshss+OOoooOoOOoooooooooooOoXOqO1--oooooOOOO@oooooXooooX",
"ooooX$$tcccDjcccs++++++++=++++OOOOOOOO+ulall4===q7q=q==ssllqshlsss+sssssslsss-oOoOooooooX<ooooooooooooO+;+-o+oo+oOOOooo$oooooooo",
"XXXOOXooqhAulAll+q++-+1+1o+1-+o+OOOOOOOO@=t====4+==qqssshslslalqsslsssqqslhluaX$XooXoooooooooooooooooX77++8O+o=ooo.Ooo=ooooXoOXX",
"XXXoo+ooquhulhAs+++++1o1+11oo++oOOOOO@O@@@1=1=4=sqsssqllshslqslqstsqqq=lhlluusqo7ooOooo.ooooooooooooo<o++8OO7qooOoOOOooooooXXXXX",
"OXXoXoO=tuuuhhhq+++++o-o+1+1+oo+OXXoXooO@@===oo=+=sqsqshhslssq+++$+=+qqaqlu=t=OooooO7o<o7oooooooooXoooooO+O++7oooOO==s=q=tvsooOX",
"XOXXXXXXXXOO++ooooo+++++-o-+o+o+oXoXooooooXO=ooo++sllsllshl=q+$+++$+++$OOOOOOooooOoO7+7+777aooooXoX.ooXXoo7O7oOoooOstslslss=oXOX",
"XooX..OXXXoOoooo+OO++O+-+++o1++ooXooooooooooOo=o++slululausq++$+O+++$OOO$$oOOoOooOooo+++<<77oooooXoXXoXo.ooooXoXoo1s=lssssmsooXX",
" XXX.OXXOOOXoOoOO+O++++-+1+==++oXoooooOo@ooOoOoo+==qulAlqstO+++O$OO+$OO$OoOOXoOoOooOoO++<<7o<:ooXoXooXXXoo.oXoXooo=sssssss64Ooo ",
" X X...ooXXX.oXOoOOO++o++++++Oo o oooOoOooOoooo=o+OOssllstt++$O+O$OOOO$OX$OoOXoOOooooOO+:7:7<:...oXoXoXXoXoooXoXoo=ss=ms6ms4@XX ",
" X X..OXXO.OOXOXOO+O++++O++++O oo ooooooOooOoooooooOqlsssOq=++$O$OOOOOOO@XoooOOXooOoooO77:7:<<.ooXoXoXooXoXoXoXooo=lss1ss1666XXX",
"XX XXXXoooX+OXoO+++O$$$$+OOOOOooXoXooOoO+ooOoooOOooOOlllaa++OO+O$OOOOO+OX@XOXXOXoooo+o+7777777XoXXooXoXoo.oooXoXoo=sssssssst6XX ",
"  X  oXXXooooO$+++++$$X$+OOO1OooXoo@ooOoooooOoOooOoOO=lsahq+O+OOOOOOOOO+@XOOOOXOoo7++7+ooX.o.ooXXoXooX.ooooooooooo=1sss=sss6sXo ",
"oX XXXXoooXXoXq$+++++$$ooooO+oOoXXoXooooo++OOoooOoooOOOOOOOoO+OOO=$O++q+6$tOOoXX.oO+.Xoo.oooooXXXXXXooooOOOoooo.oXo+Ooooo==@o   ",
"  oXXXXoXooOoXOO++++OOX+oooo1++ XX@o=O==o-+++OoooOOo..ooooooXOOOOOO==q++1=+@oo.X...XoooXooooo.XXXXXoooo7OOooXX.oXXooXoooooX oo X",
"   XXXXooXoXXXO++$=+ooXX.oo o+ooXXo@+o++-o-+OOoo.OO.O.OoooOoOO++OO+=+q=q=q++o...X.XX.o.oooo.XXXXXXXo7o+7OoooooooXooooo.oXXoX X X",
"XXXXoOooX+oXXXX+OXooX.XXoo.oooooo@@Xo+++--++oooooooO.OooooooXXOX+qq=q=q+++$+OOoo.oXX.oooo.o.XXXXXXXoo7+ooo.o.....Xo.o.o oo X  X ",
"X XoooOo$XOX+XoXoo.ooooooooooO+ oXXoo++++s-1ooooooo.oooo.ooooooo+O$++s+++qq+=+o......oo.o...XXX.XXoX.o.7OOOOOo.o.o.o oXX  X  oX ",
"XXXoXoXoXXOOXOooXXXoooooooooo+.oXXXoo=++---sq=OOoooOooooooooooooqq+q++=+q++==oo......o.o..o.XXoo+oooooooOOoOo.o.oo..o Xo X XX oX"
};
